<svg width="168" height="48" viewBox="0 0 168 48" fill="none" xmlns="http://www.w3.org/2000/svg">
  <rect width="168" height="48" rx="24" fill="#25D366"/>
  <g transform="translate(33,0)">
    <circle cx="12" cy="24" r="12" fill="white"/>
    <path d="M9.6 20.2c.2-.5.5-.6.9-.6h1c.3 0 .6.1.7.4l.8 1.9c.1.3.1.6-.1.8l-.4.5c-.1.2-.2.4 0 .6.4.8 1.2 1.7 2.1 2.2.2.1.5.1.7-.1l.6-.5c.2-.2.5-.2.8-.1l2 .8c.3.1.4.4.4.7v1c0 .4-.2.8-.6 1-1 .5-2.3.6-3.3.2-2.1-.8-4.3-2.9-5.4-4.9-.6-1.1-.6-2.5-.1-3.6z" fill="#25D366"/>
    <text x="32" y="29" fill="#ffffff" font-size="13" font-family="Manrope, sans-serif" font-weight="600">WhatsApp</text>
  </g>
</svg>
